%YAML 1.1
%TAG !u! tag:unity3d.com,2011:
--- !u!43 &4300000
Mesh:
  m_ObjectHideFlags: 0
  m_CorrespondingSourceObject: {fileID: 0}
  m_PrefabInstance: {fileID: 0}
  m_PrefabAsset: {fileID: 0}
  m_Name: 02_unnamed 250
  serializedVersion: 12
  m_SubMeshes:
  - serializedVersion: 2
    firstByte: 0
    indexCount: 12
    topology: 0
    baseVertex: 0
    firstVertex: 0
    vertexCount: 8
    localAABB:
      m_Center: {x: 0.48274672, y: 0.022136364, z: 0.0014001918}
      m_Extent: {x: 0.008559108, y: 0.010044244, z: 0}
  m_Shapes:
    vertices: []
    shapes: []
    channels: []
    fullWeights: []
  m_BindPose: []
  m_BoneNameHashes: 
  m_RootBoneNameHash: 0
  m_BonesAABB: []
  m_VariableBoneCountWeights:
    m_Data: 
  m_MeshCompression: 0
  m_IsReadable: 1
  m_KeepVertices: 1
  m_KeepIndices: 1
  m_IndexFormat: 0
  m_IndexBuffer: 000001000200010000000300040005000600050004000700
  m_VertexData:
    serializedVersion: 3
    m_VertexCount: 8
    m_Channels:
    - stream: 0
      offset: 0
      format: 0
      dimension: 3
    - stream: 0
      offset: 12
      format: 0
      dimension: 3
    - stream: 0
      offset: 24
      format: 0
      dimension: 4
    - stream: 0
      offset: 0
      format: 0
      dimension: 0
    - stream: 0
      offset: 40
      format: 0
      dimension: 2
    - stream: 0
      offset: 0
      format: 0
      dimension: 0
    - stream: 0
      offset: 0
      format: 0
      dimension: 0
    - stream: 0
      offset: 0
      format: 0
      dimension: 0
    - stream: 0
      offset: 0
      format: 0
      dimension: 0
    - stream: 0
      offset: 0
      format: 0
      dimension: 0
    - stream: 0
      offset: 0
      format: 0
      dimension: 0
    - stream: 0
      offset: 0
      format: 0
      dimension: 0
    - stream: 0
      offset: 0
      format: 0
      dimension: 0
    - stream: 0
      offset: 0
      format: 0
      dimension: 0
    m_DataSize: 384
    _typelessdata: b8c8f23e822d463ca486b73a00000000000000000000803f70ea7fbf3c1ad2bc00000000000080bf4cbc174279e57f4185e2f23ed0cf033da486b73a00000000000000000000803f22ea7fbfe19bd3bc00000000000080bf3ea91742de1a8441b8c8f23ed0cf033da486b73a00000000000000000000803f20ea7fbf519ed3bc00000000000080bf5dae1742231b844185e2f23e822d463ca486b73a00000000000000000000803f72ea7fbfce17d2bc00000000000080bf2eb71742f0e47f41a472fb3e061e463ca486b73a00000000000000000000803f70ea7fbf3c1ad2bc00000000000080bf55041642ffb67f41708cfb3ef1cb033da486b73a00000000000000000000803f22ea7fbfe19bd3bc00000000000080bf47f11542a1038441a472fb3ef1cb033da486b73a00000000000000000000803f20ea7fbf519ed3bc00000000000080bf66f61542e6038441708cfb3e061e463ca486b73a00000000000000000000803f72ea7fbfce17d2bc00000000000080bf37ff154276b67f41
  m_CompressedMesh:
    m_Vertices:
      m_NumItems: 0
      m_Range: 0
      m_Start: 0
      m_Data: 
      m_BitSize: 0
    m_UV:
      m_NumItems: 0
      m_Range: 0
      m_Start: 0
      m_Data: 
      m_BitSize: 0
    m_Normals:
      m_NumItems: 0
      m_Range: 0
      m_Start: 0
      m_Data: 
      m_BitSize: 0
    m_Tangents:
      m_NumItems: 0
      m_Range: 0
      m_Start: 0
      m_Data: 
      m_BitSize: 0
    m_Weights:
      m_NumItems: 0
      m_Data: 
      m_BitSize: 0
    m_NormalSigns:
      m_NumItems: 0
      m_Data: 
      m_BitSize: 0
    m_TangentSigns:
      m_NumItems: 0
      m_Data: 
      m_BitSize: 0
    m_FloatColors:
      m_NumItems: 0
      m_Range: 0
      m_Start: 0
      m_Data: 
      m_BitSize: 0
    m_BoneIndices:
      m_NumItems: 0
      m_Data: 
      m_BitSize: 0
    m_Triangles:
      m_NumItems: 0
      m_Data: 
      m_BitSize: 0
    m_UVInfo: 0
  m_LocalAABB:
    m_Center: {x: 0.48274672, y: 0.022136364, z: 0.0014001918}
    m_Extent: {x: 0.008559108, y: 0.010044244, z: 0}
  m_MeshUsageFlags: 0
  m_CookingOptions: 30
  m_BakedConvexCollisionMesh: 
  m_BakedTriangleCollisionMesh: 
  'm_MeshMetrics[0]': 1
  'm_MeshMetrics[1]': 1
  m_MeshOptimizationFlags: 1
  m_StreamData:
    serializedVersion: 2
    offset: 0
    size: 0
    path: 
  m_MeshLodInfo:
    serializedVersion: 2
    m_LodSelectionCurve:
      serializedVersion: 1
      m_LodSlope: 0
      m_LodBias: 0
    m_NumLevels: 1
    m_SubMeshes:
    - serializedVersion: 2
      m_Levels:
      - serializedVersion: 1
        m_IndexStart: 0
        m_IndexCount: 0
